# xmcd
#
# Track frame offsets:
#	150
#	12828
#	32124
#	44175
#	56561
#	70647
#	84469
#	101704
#	118269
#	134583
#	148042
#	161362
#	174096
#	184908
#	199327
#	215321
#	225785
#
# Disc length: 3199 seconds
#
# Revision: 2
# Processed by: cddbd v1.5.1PL0 Copyright (c) Steve Scherf et al.
# Submitted via: EasyCDDAExtractor 7.5.2.1
#
DISCID=ed0c7d11
DTITLE=Dolly Parton - A Collection Of Hits - Disc 1
DYEAR=1900
DGENRE=Country
TTITLE0=9 To 5
TTITLE1=Applachian Memories
TTITLE2=Baby I'm Burning
TTITLE3=Bargain Store
TTITLE4=Coat Of Many Colors
TTITLE5=Daddy Come And Get Me
TTITLE6=Down From Dover
TTITLE7=Hard Candy Christmas
TTITLE8=Heartbreaker
TTITLE9=Here You Come Again
TTITLE10=I Will Always Love You
TTITLE11=In The Good Old Days (When Times Were Bad)
TTITLE12=Islands In The Stream
TTITLE13=Jolene
TTITLE14=Just Because I'm A Woman
TTITLE15=Light Of A Clear Blue Morning
TTITLE16=Kentucky Gambler
EXTD=
EXTT0=
EXTT1=
EXTT2=
EXTT3=
EXTT4=
EXTT5=
EXTT6=
EXTT7=
EXTT8=
EXTT9=
EXTT10=
EXTT11=
EXTT12=
EXTT13=
EXTT14=
EXTT15=
EXTT16=
PLAYORDER=
